<svg width="220" height="220" viewBox="0 0 220 220" fill="none" xmlns="http://www.w3.org/2000/svg">
<g filter="url(#filter0_d_1_729)">
<circle cx="110" cy="100" r="90" fill="white"/>
</g>
<path d="M88.1789 107.129C89.4389 111.539 90.6089 113.609 92.8589 116.039C96.5489 119.819 101.499 121.709 107.799 121.709C115.809 121.709 121.929 118.829 125.979 113.159C130.389 107.129 132.639 99.1186 132.639 89.9386C132.639 80.4886 130.209 72.3886 125.889 67.0786C122.199 62.3986 116.079 59.8786 108.879 59.8786C95.5589 59.8786 86.8289 67.7986 86.8289 79.8586C86.8289 90.6586 94.4789 98.2186 105.369 98.2186C111.129 98.2186 114.729 96.5986 118.779 92.0086C118.419 99.2986 118.239 101.549 117.519 103.709C116.079 108.479 112.839 111.179 108.519 111.179C104.469 111.179 101.949 109.199 100.509 104.879L88.1789 107.129ZM109.149 69.8686C114.099 69.8686 118.059 73.9186 118.059 78.9586C118.059 83.9986 114.009 88.0486 108.879 88.0486C103.929 88.0486 100.149 84.0886 100.149 78.9586C100.149 73.9186 104.199 69.8686 109.149 69.8686Z" fill="#00609C"/>
<path d="M79.282 134.759C76.93 134.759 75.278 136.733 75.278 139.533C75.278 140.877 75.642 142.081 76.314 142.991C76.972 143.887 77.994 144.377 79.212 144.377C81.592 144.377 83.216 142.459 83.216 139.645C83.216 136.677 81.676 134.759 79.282 134.759ZM79.268 136.117C80.682 136.117 81.396 137.321 81.396 139.673C81.396 140.611 81.256 141.381 80.976 141.941C80.654 142.585 79.968 143.019 79.226 143.019C77.854 143.019 77.098 141.815 77.098 139.589C77.098 138.595 77.266 137.699 77.588 137.083C77.896 136.467 78.512 136.117 79.268 136.117ZM91.6761 134.899H90.3461V140.905C90.3461 141.535 90.2201 142.053 90.0101 142.333C89.7441 142.683 89.1981 142.907 88.6241 142.907C88.0921 142.907 87.5881 142.711 87.3081 142.417C87.0281 142.123 86.9021 141.633 86.9021 140.905V134.899H85.1801V141.017C85.1801 142.249 85.3761 142.907 85.9221 143.467C86.4821 144.055 87.3501 144.377 88.4141 144.377C89.4641 144.377 90.3041 144.069 90.8921 143.481C91.5081 142.865 91.6761 142.305 91.6761 140.905V134.899ZM97.4206 144.237V136.341H99.8986V134.899H93.1366V136.341H95.6146V144.237H97.4206ZM108.94 134.759C106.588 134.759 104.936 136.733 104.936 139.533C104.936 140.877 105.3 142.081 105.972 142.991C106.63 143.887 107.652 144.377 108.87 144.377C111.25 144.377 112.874 142.459 112.874 139.645C112.874 136.677 111.334 134.759 108.94 134.759ZM108.926 136.117C110.34 136.117 111.054 137.321 111.054 139.673C111.054 140.611 110.914 141.381 110.634 141.941C110.312 142.585 109.626 143.019 108.884 143.019C107.512 143.019 106.756 141.815 106.756 139.589C106.756 138.595 106.924 137.699 107.246 137.083C107.554 136.467 108.17 136.117 108.926 136.117ZM116.644 144.237V140.303H119.934V138.903H116.644V136.341H120.816V134.899H114.922V144.237H116.644ZM133.602 144.237V142.865H130.97V134.717H129.85C129.64 135.081 129.36 135.375 128.744 135.907C128.198 136.369 127.918 136.509 126.728 136.957V138.651C127.512 138.343 128.338 137.797 129.276 136.957V142.865H126.462V144.237H133.602ZM138.3 134.759C137.208 134.759 136.396 135.179 135.696 136.117C135.038 136.985 134.716 138.161 134.716 139.631C134.716 142.571 136.088 144.377 138.3 144.377C139.56 144.377 140.54 143.831 141.156 142.739C141.674 141.871 141.94 140.807 141.94 139.645C141.94 136.621 140.554 134.759 138.3 134.759ZM138.342 136.005C139.112 136.005 139.574 136.369 139.882 137.209C140.078 137.755 140.204 138.665 140.204 139.631C140.204 141.955 139.588 143.061 138.3 143.061C137.012 143.061 136.424 141.941 136.424 139.519C136.424 137.153 137.054 136.005 138.342 136.005Z" fill="#00609C"/>
<path d="M105.14 189.73C94.3893 189.083 91.743 188.274 95.0509 188.598C103.921 189.215 112.828 189.107 121.679 188.274C136.478 186.903 150.918 183.016 164.351 176.789C175.112 171.533 185.214 165.073 194.452 157.539C201.234 152.039 206.857 147.995 210.165 147.995C210.33 147.995 210.661 148.157 210.826 148.157C213.473 148.642 212.315 153.98 203.714 161.259C195.279 168.377 179.898 177.598 158.231 183.745C143.583 187.858 128.418 189.951 113.178 189.963C110.085 189.963 107.376 189.869 105.14 189.73Z" fill="url(#paint0_linear_1_729)"/>
<path d="M177.084 159.48C169.476 168.215 161.868 174.039 162.364 175.009C162.695 175.98 174.438 171.451 185.519 161.421C196.766 151.392 198.916 140.554 194.947 141.039C190.812 141.201 184.858 150.907 177.084 159.48Z" fill="#DA9BC5"/>
<path d="M101.645 190.539C99.1026 190.309 96.3984 189.987 93.3932 189.568H93.2278C87.8563 188.982 82.5449 187.954 77.35 186.495C75.6961 186.009 74.3729 185.524 73.2151 185.2C70.5688 184.23 68.5842 183.583 67.5918 183.097C67.003 182.791 65.771 181.749 65.771 181.749C65.771 181.749 65.1278 181.414 65.7713 180.73C66.4147 180.046 80.0447 187.21 92.7316 188.274C105.418 189.338 95.5433 188.597 96.3703 188.759C99.0166 188.921 101.828 189.083 104.64 189.083C111.595 189.058 118.526 188.298 125.314 186.818C132.389 185.077 139.348 182.917 146.154 180.347C151.949 178.323 157.588 175.89 163.024 173.068C164.347 172.259 165.835 171.45 167.324 170.642C168.813 169.833 170.136 168.862 171.624 168.215C172.743 167.689 173.905 167.256 175.098 166.921C175.098 166.921 175.428 166.759 176.255 167.568H176.751C176.87 167.603 176.982 167.658 177.082 167.73V169.186C176.09 171.612 168.316 176.95 164.182 179.053L160.212 180.995C154.211 183.779 147.953 185.999 141.523 187.627C137.884 188.436 134.08 189.083 130.441 189.568H130.276C127.63 189.892 124.983 190.215 122.668 190.377C122.037 190.435 121.417 190.489 120.809 190.539H101.645Z" fill="url(#paint1_linear_1_729)"/>
<defs>
<filter id="filter0_d_1_729" x="0" y="0" width="220" height="220" filterUnits="userSpaceOnUse" color-interpolation-filters="sRGB">
<feFlood flood-opacity="0" result="BackgroundImageFix"/>
<feColorMatrix in="SourceAlpha" type="matrix" values="0 0 0 0 0 0 0 0 0 0 0 0 0 0 0 0 0 0 127 0" result="hardAlpha"/>
<feOffset dy="10"/>
<feGaussianBlur stdDeviation="10"/>
<feColorMatrix type="matrix" values="0 0 0 0 0.596078 0 0 0 0 0.792157 0 0 0 0 0.921569 0 0 0 1 0"/>
<feBlend mode="normal" in2="BackgroundImageFix" result="effect1_dropShadow_1_729"/>
<feBlend mode="normal" in="SourceGraphic" in2="effect1_dropShadow_1_729" result="shape"/>
</filter>
<linearGradient id="paint0_linear_1_729" x1="208.416" y1="170.773" x2="98.1495" y2="165.632" gradientUnits="userSpaceOnUse">
<stop stop-color="#97CAEB"/>
<stop offset="0.0667423" stop-color="#97CAEB"/>
<stop offset="0.1774" stop-color="#7CB7DD"/>
<stop offset="0.4178" stop-color="#4791C1"/>
<stop offset="0.6263" stop-color="#2076AD"/>
<stop offset="0.7924" stop-color="#0966A0"/>
<stop offset="0.8953" stop-color="#00609C"/>
<stop offset="1" stop-color="#00609C"/>
</linearGradient>
<linearGradient id="paint1_linear_1_729" x1="-0.383462" y1="178.836" x2="176.971" y2="178.836" gradientUnits="userSpaceOnUse">
<stop stop-color="#97CAEB"/>
<stop offset="0.2666" stop-color="#97CAEB"/>
<stop offset="0.3397" stop-color="#7CB7DD"/>
<stop offset="0.4986" stop-color="#4791C1"/>
<stop offset="0.6363" stop-color="#2076AD"/>
<stop offset="0.7461" stop-color="#0966A0"/>
<stop offset="0.8141" stop-color="#00609C"/>
<stop offset="1" stop-color="#00609C"/>
</linearGradient>
</defs>
</svg>
