<svg width="220" height="220" viewBox="0 0 220 220" fill="none" xmlns="http://www.w3.org/2000/svg">
<g filter="url(#filter0_d_1_746)">
<circle cx="110" cy="100" r="90" fill="white"/>
</g>
<path d="M105.516 190.281C94.7658 189.634 92.1195 188.825 95.4274 189.149C104.297 189.766 113.204 189.658 122.056 188.825C136.854 187.454 151.295 183.567 164.727 177.34C175.489 172.084 185.591 165.624 194.829 158.09C201.61 152.59 207.233 148.546 210.541 148.546C210.707 148.546 211.038 148.708 211.203 148.708C213.849 149.193 212.691 154.531 204.091 161.811C195.656 168.928 180.274 178.149 158.608 184.296C143.959 188.409 128.795 190.502 113.554 190.514C110.462 190.514 107.752 190.42 105.516 190.281Z" fill="url(#paint0_linear_1_746)"/>
<path d="M177.461 160.031C169.853 168.767 162.245 174.59 162.741 175.561C163.072 176.531 174.815 172.002 185.896 161.973C197.143 151.943 199.293 141.105 195.324 141.59C191.189 141.752 185.235 151.458 177.461 160.031Z" fill="#DA9BC5"/>
<path d="M102.021 191.09C99.4791 190.86 96.7749 190.538 93.7697 190.119H93.6044C88.2329 189.533 82.9214 188.505 77.7265 187.046C76.0726 186.56 74.7494 186.075 73.5917 185.752C70.9454 184.781 68.9607 184.134 67.9683 183.649C67.3795 183.343 66.1476 182.301 66.1476 182.301C66.1476 182.301 65.5043 181.966 66.1478 181.281C66.7912 180.597 80.4212 187.761 93.1081 188.825C105.795 189.889 95.9199 189.149 96.7468 189.31C99.3931 189.472 102.205 189.634 105.016 189.634C111.971 189.609 118.903 188.85 125.691 187.369C132.765 185.629 139.725 183.468 146.53 180.899C152.326 178.874 157.964 176.441 163.4 173.619C164.723 172.811 166.212 172.002 167.701 171.193C169.189 170.384 170.512 169.413 172.001 168.766C173.119 168.24 174.281 167.807 175.474 167.472C175.474 167.472 175.805 167.311 176.632 168.119H177.128C177.247 168.155 177.359 168.209 177.459 168.281V169.737C176.466 172.163 168.693 177.502 164.558 179.605L160.589 181.546C154.587 184.33 148.329 186.551 141.899 188.178C138.26 188.987 134.457 189.634 130.818 190.119H130.652C128.006 190.443 125.36 190.766 123.044 190.928C122.414 190.986 121.794 191.04 121.185 191.09H102.021Z" fill="url(#paint1_linear_1_746)"/>
<path fill-rule="evenodd" clip-rule="evenodd" d="M118.199 57.5502C117.133 55.9686 115.627 53.8669 113.468 52.4802C111.409 51.1573 108.656 50.4186 104.817 51.8018C100.164 53.4776 98.2412 57.2775 98.3374 61.6686C98.436 66.1719 100.701 71.0959 104.3 74.2623L105.149 75.0088L105.149 75.0088L105.149 75.009L105.149 75.0092C111.631 80.7111 116.672 85.1467 119.884 87.4789C123.095 85.1467 128.137 80.7113 134.618 75.0097L134.618 75.0095L134.619 75.0089L134.619 75.0088L135.467 74.2623C139.067 71.096 141.331 66.1719 141.43 61.6686C141.526 57.2774 139.603 53.4776 134.951 51.8018C131.112 50.4186 128.359 51.1573 126.299 52.4802C124.141 53.8669 122.635 55.9685 121.569 57.5502C121.49 57.6726 121.398 57.7876 121.292 57.8925C121.126 58.0571 120.936 58.1881 120.731 58.2836C120.184 58.5397 119.563 58.5285 119.037 58.2835C118.832 58.188 118.642 58.0571 118.477 57.8928C118.37 57.7878 118.278 57.6728 118.199 57.5502ZM119.884 53.0628C118.816 51.7285 117.414 50.2605 115.63 49.1148C112.581 47.1558 108.533 46.2114 103.461 48.0385C96.8813 50.4086 94.2123 56.0014 94.3384 61.7562C94.4619 67.3987 97.2336 73.3736 101.658 77.2657L102.799 78.2694L102.799 78.2694C109.784 84.4155 115.4 89.3569 118.748 91.5586C118.845 91.6252 118.946 91.6828 119.052 91.731C119.319 91.8534 119.603 91.9125 119.884 91.9122C120.287 91.9117 120.685 91.7899 121.02 91.5586C124.368 89.357 129.984 84.4157 136.968 78.2696L136.968 78.2696L136.968 78.2694L138.109 77.2657C142.534 73.3735 145.305 67.3987 145.429 61.7561C145.555 56.0015 142.886 50.4086 136.307 48.0385C131.235 46.2114 127.187 47.1558 124.137 49.1149C122.354 50.2605 120.952 51.7285 119.884 53.0628ZM51.7676 96.5044C51.7676 95.3998 52.663 94.5044 53.7676 94.5044H82.1504V100.363H92.8764C94.621 100.298 98.6215 100.757 102.004 103.125C104.589 104.935 109.095 106.766 111.352 107.564H128.455C129.856 107.564 131.66 107.841 133.182 108.816C134.826 109.87 135.971 111.645 135.971 114.153C135.971 114.522 135.958 114.884 135.928 115.238C139.387 113.68 143.431 111.729 147.091 109.931C148.928 109.029 150.685 108.157 152.216 107.397L152.22 107.395C154.78 106.124 156.71 105.166 157.33 104.903C158.995 104.196 161.158 103.577 163.341 103.809C165.652 104.055 167.847 105.249 169.315 107.851C170.574 110.084 170.437 112.298 169.507 114.163C168.63 115.921 167.098 117.294 165.612 118.257L165.518 118.318L165.419 118.368C154.622 123.766 131.217 136.548 126.236 139.478C120.768 142.695 114.355 141.543 112.311 141.176C112.274 141.169 112.239 141.163 112.205 141.157C112.141 141.146 112.082 141.135 112.029 141.126L111.88 141.1L89.7162 133.724H82.1504V137.327H60.4658C59.3613 137.327 58.4658 136.431 58.4658 135.327C58.4658 134.222 59.3613 133.327 60.4658 133.327H78.1504V98.5044H53.7676C52.663 98.5044 51.7676 97.609 51.7676 96.5044ZM82.1504 129.724H90.3643L112.859 137.21L112.921 137.221C114.988 137.582 120.064 138.469 124.208 136.031C129.257 133.061 152.609 120.307 163.525 114.843C164.635 114.108 165.498 113.238 165.928 112.377C166.315 111.601 166.384 110.798 165.831 109.817C165.031 108.398 164.012 107.903 162.918 107.787C161.697 107.657 160.263 108.003 158.893 108.585C158.378 108.804 156.691 109.641 154.324 110.816L154.324 110.816C152.753 111.597 150.882 112.526 148.854 113.522C143.864 115.973 138.036 118.772 133.935 120.462C133.603 120.599 133.256 120.64 132.924 120.598C131.686 121.305 130.221 121.536 128.741 121.536C128.117 121.536 126.98 121.533 125.543 121.528C121.185 121.514 114.063 121.49 110.091 121.534C109.322 121.677 108.234 121.992 107.353 122.466C106.306 123.029 106.182 123.453 106.177 123.539C106.108 124.641 105.158 125.479 104.056 125.41C102.954 125.341 102.116 124.392 102.185 123.289C102.327 121.012 104.142 119.651 105.459 118.943C106.885 118.176 108.503 117.742 109.576 117.563L109.728 117.538L109.882 117.536C113.854 117.49 121.195 117.514 125.607 117.528C127.022 117.533 128.136 117.536 128.741 117.536C130.251 117.536 130.928 117.21 131.259 116.885C131.583 116.568 131.971 115.861 131.971 114.153C131.971 113.037 131.544 112.518 131.023 112.184C130.379 111.771 129.425 111.564 128.455 111.564H110.68L110.365 111.456C108.184 110.709 102.909 108.641 99.7099 106.402C97.2136 104.654 94.1158 104.313 93.0033 104.361L92.9598 104.363H82.1504V129.724Z" fill="#00609C"/>
<defs>
<filter id="filter0_d_1_746" x="0" y="0" width="220" height="220" filterUnits="userSpaceOnUse" color-interpolation-filters="sRGB">
<feFlood flood-opacity="0" result="BackgroundImageFix"/>
<feColorMatrix in="SourceAlpha" type="matrix" values="0 0 0 0 0 0 0 0 0 0 0 0 0 0 0 0 0 0 127 0" result="hardAlpha"/>
<feOffset dy="10"/>
<feGaussianBlur stdDeviation="10"/>
<feColorMatrix type="matrix" values="0 0 0 0 0.596078 0 0 0 0 0.792157 0 0 0 0 0.921569 0 0 0 1 0"/>
<feBlend mode="normal" in2="BackgroundImageFix" result="effect1_dropShadow_1_746"/>
<feBlend mode="normal" in="SourceGraphic" in2="effect1_dropShadow_1_746" result="shape"/>
</filter>
<linearGradient id="paint0_linear_1_746" x1="208.793" y1="171.324" x2="98.526" y2="166.184" gradientUnits="userSpaceOnUse">
<stop stop-color="#97CAEB"/>
<stop offset="0.0667423" stop-color="#97CAEB"/>
<stop offset="0.1774" stop-color="#7CB7DD"/>
<stop offset="0.4178" stop-color="#4791C1"/>
<stop offset="0.6263" stop-color="#2076AD"/>
<stop offset="0.7924" stop-color="#0966A0"/>
<stop offset="0.8953" stop-color="#00609C"/>
<stop offset="1" stop-color="#00609C"/>
</linearGradient>
<linearGradient id="paint1_linear_1_746" x1="-0.00695404" y1="179.388" x2="177.348" y2="179.388" gradientUnits="userSpaceOnUse">
<stop stop-color="#97CAEB"/>
<stop offset="0.2666" stop-color="#97CAEB"/>
<stop offset="0.3397" stop-color="#7CB7DD"/>
<stop offset="0.4986" stop-color="#4791C1"/>
<stop offset="0.6363" stop-color="#2076AD"/>
<stop offset="0.7461" stop-color="#0966A0"/>
<stop offset="0.8141" stop-color="#00609C"/>
<stop offset="1" stop-color="#00609C"/>
</linearGradient>
</defs>
</svg>
