<svg width="13" height="18" viewBox="0 0 13 18" fill="none" xmlns="http://www.w3.org/2000/svg">
<path id="Shape" fill-rule="evenodd" clip-rule="evenodd" d="M3.54545 4.49429C3.54545 3.4183 3.83168 2.6136 4.30564 2.08301C4.77377 1.55893 5.49051 1.22872 6.50165 1.22872C7.51335 1.22872 8.22907 1.55828 8.69609 2.08118C9.16899 2.61064 9.45455 3.41434 9.45455 4.4909V6.17024H3.54545V4.49429ZM2.36364 6.17024V4.49429C2.36364 3.19857 2.71037 2.06331 3.43967 1.24686C4.1748 0.423893 5.23161 0 6.50165 0C7.77144 0 8.82761 0.422714 9.56209 1.24508C10.2908 2.06089 10.6364 3.19548 10.6364 4.4909V6.17024H11.8182C12.4709 6.17024 13 6.72036 13 7.39896V16.7713C13 17.4499 12.4709 18 11.8182 18H1.18182C0.529124 18 0 17.4499 0 16.7713V7.39896C0 6.72036 0.529124 6.17024 1.18182 6.17024H2.36364ZM1.18182 7.39896H11.8182V16.7713H1.18182V7.39896Z" fill="black"/>
</svg>
