<svg width="221" height="221" viewBox="0 0 221 221" fill="none" xmlns="http://www.w3.org/2000/svg">
<g filter="url(#filter0_d_1_759)">
<circle cx="110.024" cy="100.529" r="90" fill="white"/>
</g>
<path d="M104.774 191.386C94.0237 190.738 91.3774 189.93 94.6853 190.253C103.555 190.871 112.462 190.762 121.314 189.93C136.112 188.558 150.553 184.672 163.985 178.444C174.747 173.189 184.848 166.729 194.087 159.195C200.868 153.695 206.491 149.651 209.799 149.651C209.965 149.651 210.295 149.812 210.461 149.812C213.107 150.298 211.949 155.636 203.349 162.915C194.914 170.033 179.532 179.253 157.866 185.4C143.217 189.513 128.053 191.606 112.812 191.618C109.719 191.618 107.01 191.525 104.774 191.386Z" fill="url(#paint0_linear_1_759)"/>
<path d="M176.719 161.136C169.111 169.871 161.503 175.695 161.999 176.665C162.33 177.636 174.073 173.106 185.154 163.077C196.401 153.048 198.551 142.21 194.581 142.695C190.446 142.857 184.492 152.562 176.719 161.136Z" fill="#DA9BC5"/>
<path d="M101.279 192.194C98.737 191.965 96.0328 191.643 93.0276 191.224H92.8623C87.4908 190.637 82.1793 189.609 76.9844 188.15C75.3305 187.665 74.0073 187.18 72.8495 186.856C70.2032 185.886 68.2186 185.238 67.2262 184.753C66.6374 184.447 65.4054 183.405 65.4054 183.405C65.4054 183.405 64.7622 183.07 65.4057 182.386C66.0491 181.701 79.6791 188.866 92.366 189.93C105.053 190.993 95.1778 190.253 96.0047 190.415C98.651 190.577 101.463 190.738 104.274 190.738C111.229 190.714 118.161 189.954 124.949 188.474C132.023 186.733 138.983 184.572 145.788 182.003C151.584 179.978 157.222 177.546 162.658 174.724C163.981 173.915 165.47 173.106 166.959 172.297C168.447 171.489 169.77 170.518 171.259 169.871C172.377 169.345 173.539 168.912 174.732 168.577C174.732 168.577 175.063 168.415 175.89 169.224H176.386C176.505 169.259 176.617 169.314 176.717 169.386V170.841C175.724 173.268 167.951 178.606 163.816 180.709L159.847 182.65C153.845 185.434 147.587 187.655 141.157 189.283C137.518 190.091 133.714 190.738 130.076 191.224H129.91C127.264 191.547 124.618 191.871 122.302 192.033C121.672 192.091 121.052 192.145 120.443 192.194H101.279Z" fill="url(#paint1_linear_1_759)"/>
<path fill-rule="evenodd" clip-rule="evenodd" d="M118.497 48.3731C117.062 49.3453 114.423 50.8426 111.257 52.0957C108.051 53.3646 104.442 54.3285 101.072 54.3285L99.0715 54.3285V56.3285C99.0715 70.1003 103.909 87.2133 118.382 97.2316C119.053 97.7897 120.037 97.8605 120.792 97.3428C135.384 87.3371 140.255 70.1512 140.255 56.3298V54.3298L138.255 54.3298C134.884 54.3298 131.274 53.3656 128.067 52.0965C124.901 50.8431 122.261 49.3455 120.826 48.3731C120.719 48.2967 120.605 48.2316 120.487 48.1783C120.223 48.058 119.941 47.9998 119.661 48C119.382 47.9998 119.1 48.058 118.836 48.1783C118.718 48.2316 118.604 48.2967 118.497 48.3731ZM119.668 93.2317C131.292 84.5909 135.803 70.5115 136.223 58.2388C132.831 57.9422 129.477 56.9563 126.595 55.8158C123.809 54.7131 121.377 53.4304 119.661 52.3783C117.946 53.4301 115.514 54.7125 112.729 55.815C109.849 56.9552 106.495 57.9409 103.104 58.2375C103.524 70.5118 108.036 84.5936 119.668 93.2317ZM51.0894 95.2036C49.9848 95.2036 49.0894 96.099 49.0894 97.2036C49.0894 98.3082 49.9848 99.2036 51.0894 99.2036H75.4722V134.026H57.7876C56.683 134.026 55.7876 134.921 55.7876 136.026C55.7876 137.13 56.683 138.026 57.7876 138.026H79.4722V134.424H87.0379L109.202 141.8L109.351 141.825C109.432 141.839 109.526 141.856 109.631 141.875L109.633 141.875C111.677 142.242 118.09 143.394 123.558 140.177C128.539 137.248 151.944 124.465 162.74 119.067L162.84 119.017L162.934 118.957C164.419 117.994 165.952 116.62 166.829 114.862C167.759 112.998 167.896 110.783 166.636 108.551C165.168 105.948 162.974 104.754 160.663 104.509C158.479 104.277 156.316 104.896 154.652 105.602C154.032 105.865 152.102 106.823 149.541 108.094L149.541 108.094C148.009 108.855 146.251 109.727 144.413 110.63C140.752 112.428 136.709 114.38 133.25 115.937C133.279 115.583 133.293 115.221 133.293 114.852C133.293 112.344 132.147 110.569 130.504 109.515C128.982 108.54 127.178 108.264 125.777 108.264H108.673C106.417 107.466 101.911 105.634 99.3255 103.824C95.9433 101.456 91.9428 100.997 90.1981 101.062H79.4722V95.2036H51.0894ZM130.246 121.297C129.008 122.005 127.543 122.235 126.063 122.235C125.438 122.235 124.302 122.232 122.865 122.227H122.865H122.864H122.863C118.504 122.213 111.384 122.19 107.413 122.233C106.644 122.376 105.556 122.691 104.675 123.165C103.627 123.728 103.504 124.152 103.499 124.238C103.43 125.341 102.48 126.178 101.378 126.109C100.275 126.041 99.4375 125.091 99.5064 123.989C99.6488 121.711 101.464 120.35 102.78 119.642C104.207 118.875 105.825 118.442 106.898 118.263L107.05 118.237L107.204 118.236C111.176 118.189 118.517 118.213 122.929 118.227C124.344 118.232 125.458 118.235 126.063 118.235C127.572 118.235 128.25 117.909 128.581 117.585C128.905 117.267 129.293 116.561 129.293 114.852C129.293 113.737 128.866 113.217 128.345 112.883C127.701 112.47 126.747 112.264 125.777 112.264H108.002L107.686 112.156C105.505 111.408 100.231 109.34 97.0317 107.101C94.5354 105.354 91.4376 105.012 90.325 105.06L90.2816 105.062H79.4722V130.424H87.686L110.18 137.909L110.242 137.92C112.31 138.281 117.385 139.168 121.53 136.73C126.579 133.76 149.931 121.007 160.847 115.542C161.957 114.807 162.82 113.938 163.25 113.077C163.637 112.3 163.706 111.497 163.153 110.516C162.352 109.097 161.333 108.602 160.24 108.486C159.018 108.356 157.585 108.703 156.215 109.284C155.7 109.503 154.013 110.34 151.647 111.515L151.647 111.515L151.646 111.515L151.646 111.516L151.644 111.516C150.073 112.297 148.203 113.225 146.176 114.221C141.186 116.672 135.358 119.471 131.257 121.161C130.925 121.298 130.578 121.339 130.246 121.297ZM129.42 64.4171C130.201 65.1981 130.201 66.4645 129.42 67.2455L120.496 76.1692C120.28 76.385 120.027 76.5413 119.758 76.6378C119.052 76.8906 118.233 76.7344 117.668 76.1692L113.525 72.0268C112.744 71.2457 112.744 69.9794 113.525 69.1983C114.306 68.4173 115.572 68.4173 116.353 69.1983L119.082 71.9266L126.591 64.4171C127.372 63.636 128.639 63.636 129.42 64.4171Z" fill="#00609C"/>
<defs>
<filter id="filter0_d_1_759" x="0.0239258" y="0.528564" width="220" height="220" filterUnits="userSpaceOnUse" color-interpolation-filters="sRGB">
<feFlood flood-opacity="0" result="BackgroundImageFix"/>
<feColorMatrix in="SourceAlpha" type="matrix" values="0 0 0 0 0 0 0 0 0 0 0 0 0 0 0 0 0 0 127 0" result="hardAlpha"/>
<feOffset dy="10"/>
<feGaussianBlur stdDeviation="10"/>
<feColorMatrix type="matrix" values="0 0 0 0 0.596078 0 0 0 0 0.792157 0 0 0 0 0.921569 0 0 0 1 0"/>
<feBlend mode="normal" in2="BackgroundImageFix" result="effect1_dropShadow_1_759"/>
<feBlend mode="normal" in="SourceGraphic" in2="effect1_dropShadow_1_759" result="shape"/>
</filter>
<linearGradient id="paint0_linear_1_759" x1="208.051" y1="172.429" x2="97.7839" y2="167.288" gradientUnits="userSpaceOnUse">
<stop stop-color="#97CAEB"/>
<stop offset="0.0667423" stop-color="#97CAEB"/>
<stop offset="0.1774" stop-color="#7CB7DD"/>
<stop offset="0.4178" stop-color="#4791C1"/>
<stop offset="0.6263" stop-color="#2076AD"/>
<stop offset="0.7924" stop-color="#0966A0"/>
<stop offset="0.8953" stop-color="#00609C"/>
<stop offset="1" stop-color="#00609C"/>
</linearGradient>
<linearGradient id="paint1_linear_1_759" x1="-0.749122" y1="180.492" x2="176.606" y2="180.492" gradientUnits="userSpaceOnUse">
<stop stop-color="#97CAEB"/>
<stop offset="0.2666" stop-color="#97CAEB"/>
<stop offset="0.3397" stop-color="#7CB7DD"/>
<stop offset="0.4986" stop-color="#4791C1"/>
<stop offset="0.6363" stop-color="#2076AD"/>
<stop offset="0.7461" stop-color="#0966A0"/>
<stop offset="0.8141" stop-color="#00609C"/>
<stop offset="1" stop-color="#00609C"/>
</linearGradient>
</defs>
</svg>
